<?xml version="1.0" encoding="UTF-8" standalone="no"?>
<svg
   viewBox="0 0 36 36"
   version="1.1"
   id="svg4"
   sodipodi:docname="1f6ab.svg"
   xml:space="preserve"
   inkscape:version="1.2 (dc2aedaf03, 2022-05-15)"
   xmlns:inkscape="http://www.inkscape.org/namespaces/inkscape"
   xmlns:sodipodi="http://sodipodi.sourceforge.net/DTD/sodipodi-0.dtd"
   xmlns="http://www.w3.org/2000/svg"
   xmlns:svg="http://www.w3.org/2000/svg"><defs
     id="defs8" /><sodipodi:namedview
     id="namedview6"
     pagecolor="#ffffff"
     bordercolor="#000000"
     borderopacity="0.25"
     inkscape:showpageshadow="2"
     inkscape:pageopacity="0.0"
     inkscape:pagecheckerboard="0"
     inkscape:deskcolor="#d1d1d1"
     showgrid="false"
     inkscape:zoom="12.180556"
     inkscape:cx="0.41049031"
     inkscape:cy="25.614595"
     inkscape:window-width="1920"
     inkscape:window-height="1057"
     inkscape:window-x="-8"
     inkscape:window-y="-8"
     inkscape:window-maximized="1"
     inkscape:current-layer="svg4" /><g
     id="g136"
     transform="matrix(0.50718134,0,0,0.58820655,9.0144071,7.555954)"><path
       fill="#be1931"
       d="m 12.908,30.75 c -0.276,2.209 -2.291,3 -4.5,3 -2.209,0 -3.776,-1.791 -3.5,-4 l 1,-9 c 0.276,-2.209 2.291,-4 4.5,-4 2.209,0 6.468,0 3.5,4 -2.968,4 -1,10 -1,10 z"
       id="path115" /><path
       fill="#ccd6dd"
       d="m 35.825,14.75 c 0,6.902 -1.544,12.5 -3.45,12.5 -1.905,0 -20.45,-5.598 -20.45,-12.5 0,-6.903 18.545,-12.5 20.45,-12.5 1.906,0 3.45,5.597 3.45,12.5 z"
       id="path117" /><ellipse
       fill="#66757f"
       cx="32.375"
       cy="14.75"
       rx="3.45"
       ry="12.5"
       id="ellipse119" /><path
       fill="#dd2e44"
       d="m 17.925,21.75 -14,-1 c -5,0 -5,-12 0,-12 l 14,-1 c -3,3 -3,11 0,14 z"
       id="path121" /><ellipse
       fill="#99aab5"
       cx="31.325001"
       cy="14.75"
       rx="1.5"
       ry="4.348"
       id="ellipse123" /></g><path
     fill="#DD2E44"
     d="M18 0C8.059 0 0 8.059 0 18s8.059 18 18 18 18-8.059 18-18S27.941 0 18 0zm13 18c0 2.565-.753 4.95-2.035 6.965L11.036 7.036C13.05 5.753 15.435 5 18 5c7.18 0 13 5.821 13 13zM5 18c0-2.565.753-4.95 2.036-6.964l17.929 17.929C22.95 30.247 20.565 31 18 31c-7.179 0-13-5.82-13-13z"
     id="path2"
     style="fill:#f50d5a;fill-opacity:1" /></svg>
